<svg width="472" height="352" viewBox="0 0 472 352" fill="none" xmlns="http://www.w3.org/2000/svg">
<path d="M471.735 308.892H0V309.128H471.735V308.892Z" fill="#EBEBEB"/>
<path d="M424.467 324.073H372.359V324.308H424.467V324.073Z" fill="#EBEBEB"/>
<path d="M311.817 319.129H303.618V319.365H311.817V319.129Z" fill="#EBEBEB"/>
<path d="M369.519 315.317H351.414V315.553H369.519V315.317Z" fill="#EBEBEB"/>
<path d="M90.2426 316.902H49.4941V317.138H90.2426V316.902Z" fill="#EBEBEB"/>
<path d="M246.293 322.997H203.157V323.233H246.293V322.997Z" fill="#EBEBEB"/>
<path d="M220.904 319.006H132.52V319.242H220.904V319.006Z" fill="#EBEBEB"/>
<path d="M228.999 261.426C228.999 262.134 228.859 262.836 228.588 263.49C228.317 264.144 227.919 264.738 227.418 265.239C226.916 265.739 226.321 266.136 225.667 266.406C225.012 266.676 224.31 266.815 223.602 266.813H41.4276C40.0004 266.811 38.6326 266.242 37.6243 265.232C36.6161 264.222 36.0498 262.853 36.0498 261.426V5.34004C36.0622 3.92108 36.634 2.56433 37.6409 1.56448C38.6478 0.564627 40.0086 0.00243074 41.4276 0H223.602C225.031 0 226.401 0.56758 227.412 1.57788C228.422 2.58818 228.989 3.95843 228.989 5.38721L228.999 261.426ZM228.754 5.38721C228.759 4.70711 228.629 4.03274 228.372 3.40286C228.116 2.77298 227.737 2.20002 227.259 1.71691C226.78 1.23381 226.211 0.850096 225.583 0.58783C224.955 0.325563 224.282 0.18992 223.602 0.188695H41.4276C40.063 0.191194 38.7552 0.735024 37.7911 1.70082C36.8271 2.66661 36.2857 3.97545 36.2857 5.34004V261.426C36.2857 262.791 36.8271 264.099 37.7911 265.065C38.7552 266.031 40.063 266.575 41.4276 266.577H223.602C224.968 266.575 226.276 266.031 227.242 265.066C228.208 264.1 228.751 262.792 228.754 261.426" fill="#EBEBEB"/>
<path d="M427.685 266.813H245.5C244.072 266.811 242.704 266.242 241.694 265.233C240.684 264.223 240.116 262.854 240.113 261.426V5.34004C240.128 3.92022 240.702 2.56348 241.71 1.56389C242.719 0.564297 244.081 0.00240423 245.5 0H427.685C429.102 0.00491029 430.46 0.568204 431.465 1.56779C432.47 2.56738 433.04 3.92271 433.053 5.34004V261.426C433.053 262.852 432.488 264.219 431.482 265.229C430.475 266.238 429.11 266.808 427.685 266.813V266.813ZM245.5 0.188695C244.135 0.191189 242.826 0.734718 241.861 1.70024C240.895 2.66577 240.352 3.97458 240.349 5.34004V261.426C240.352 262.792 240.895 264.1 241.861 265.066C242.826 266.031 244.135 266.575 245.5 266.577H427.685C429.05 266.575 430.359 266.031 431.324 265.066C432.29 264.1 432.833 262.792 432.836 261.426V5.34004C432.833 3.97458 432.29 2.66577 431.324 1.70024C430.359 0.734718 429.05 0.191189 427.685 0.188695H245.5Z" fill="#EBEBEB"/>
<path d="M320.317 65.8542H257.718V138.435H320.317V65.8542Z" fill="#E6E6E6"/>
<path d="M324.685 65.8542H258.661V138.435H324.685V65.8542Z" fill="#F0F0F0"/>
<path d="M319.156 132.916V71.3923H264.199V132.916H319.156Z" fill="white"/>
<path d="M305.042 116.047H290.777C287.326 116.042 284.019 114.668 281.579 112.227C279.14 109.786 277.769 106.478 277.767 103.027V88.771C277.767 88.6309 277.822 88.4965 277.921 88.3974C278.02 88.2983 278.155 88.2427 278.295 88.2427H292.56C296.013 88.2452 299.323 89.6177 301.764 92.0589C304.205 94.5 305.578 97.8102 305.58 101.263V115.528C305.579 115.597 305.564 115.666 305.536 115.729C305.509 115.793 305.469 115.85 305.419 115.899C305.369 115.947 305.31 115.985 305.245 116.01C305.181 116.036 305.112 116.048 305.042 116.047V116.047ZM278.823 89.2994V103.027C278.828 106.196 280.089 109.233 282.33 111.474C284.571 113.715 287.608 114.976 290.777 114.981H304.514V101.263C304.511 98.093 303.251 95.054 301.01 92.8127C298.769 90.5715 295.73 89.3113 292.56 89.3088L278.823 89.2994Z" fill="#F0F0F0"/>
<path d="M410.768 93.1393H339.093L345.442 40.5503H404.419L410.768 93.1393Z" fill="#EBEBEB"/>
<path d="M350.962 93.1299H349.811V113.273H350.962V93.1299Z" fill="#E0E0E0"/>
<path d="M350.386 114.65C351.147 114.65 351.764 114.034 351.764 113.273C351.764 112.512 351.147 111.896 350.386 111.896C349.625 111.896 349.009 112.512 349.009 113.273C349.009 114.034 349.625 114.65 350.386 114.65Z" fill="#E0E0E0"/>
<path d="M395.041 93.1393H382.719L380.105 40.5503H391.474L395.041 93.1393Z" fill="#F5F5F5"/>
<path d="M378.52 93.1299H371.35V308.883H378.52V93.1299Z" fill="#F0F0F0"/>
<path d="M386.275 308.892H363.585C363.585 307.61 364.094 306.38 364.999 305.473C365.905 304.566 367.134 304.055 368.416 304.052H381.445C382.727 304.055 383.956 304.566 384.861 305.473C385.767 306.38 386.275 307.61 386.275 308.892V308.892Z" fill="#F0F0F0"/>
<path d="M378.52 93.1299H371.35V97.5076H378.52V93.1299Z" fill="#E0E0E0"/>
<path d="M366.614 206.931C366.038 206.931 365.463 206.931 364.878 206.988C361.243 207.241 357.71 208.295 354.532 210.076C351.354 211.857 348.61 214.32 346.497 217.288C344.385 220.256 342.956 223.655 342.313 227.241C341.671 230.827 341.831 234.511 342.782 238.028C345.473 248.527 346.774 259.334 346.65 270.172V301.74C346.649 302.285 346.755 302.824 346.963 303.327C347.17 303.83 347.475 304.287 347.86 304.672C348.245 305.057 348.702 305.362 349.205 305.57C349.708 305.777 350.247 305.884 350.792 305.882H418.722V206.931H366.614Z" fill="#F0F0F0"/>
<path d="M443.431 231.603C443.43 228.089 442.678 224.615 441.227 221.415C439.775 218.214 437.657 215.361 435.013 213.045C432.37 210.729 429.262 209.005 425.899 207.987C422.535 206.969 418.993 206.681 415.509 207.142C412.025 207.604 408.68 208.804 405.697 210.662C402.715 212.521 400.163 214.995 398.214 217.919C396.264 220.843 394.962 224.149 394.393 227.617C393.825 231.085 394.004 234.635 394.917 238.028C397.609 248.527 398.909 259.334 398.786 270.172V301.741C398.784 302.285 398.891 302.824 399.098 303.327C399.306 303.83 399.611 304.287 399.996 304.672C400.381 305.057 400.838 305.362 401.341 305.57C401.844 305.777 402.383 305.884 402.928 305.882H434.572C435.67 305.882 436.724 305.446 437.5 304.669C438.277 303.893 438.713 302.839 438.713 301.741V268.323C438.606 258.157 439.875 248.023 442.487 238.198C443.1 236.053 443.418 233.834 443.431 231.603V231.603Z" fill="#F5F5F5"/>
<path d="M406.221 245.802H293.703V305.882H406.221V245.802Z" fill="#F0F0F0"/>
<path d="M335.724 167.088H252.699C250.306 167.045 247.932 167.512 245.733 168.457C243.534 169.402 241.562 170.804 239.947 172.57C238.331 174.336 237.111 176.425 236.365 178.699C235.619 180.974 235.366 183.38 235.622 185.76L241.943 259.35H362.292L355.971 185.76C355.462 180.71 353.121 176.023 349.391 172.582C345.66 169.142 340.798 167.187 335.724 167.088V167.088Z" fill="#E0E0E0"/>
<path d="M360.141 167.088H275.323C273.044 167.044 270.782 167.486 268.688 168.385C266.593 169.283 264.714 170.618 263.176 172.3C261.638 173.982 260.476 175.973 259.767 178.139C259.059 180.305 258.82 182.598 259.067 184.863L265.473 259.398H385.879L379.473 184.863C378.992 180.045 376.757 175.572 373.192 172.294C369.628 169.017 364.983 167.164 360.141 167.088V167.088Z" fill="#F5F5F5"/>
<path d="M295.551 240.321H404.314C405.953 240.321 407.525 240.972 408.684 242.131C409.843 243.289 410.494 244.861 410.494 246.5V258.605C410.494 260.244 409.843 261.816 408.684 262.975C407.525 264.134 405.953 264.785 404.314 264.785H295.551C295.051 264.785 294.571 264.586 294.217 264.232C293.863 263.878 293.664 263.398 293.664 262.898V242.141C293.681 241.653 293.888 241.189 294.24 240.85C294.592 240.51 295.062 240.32 295.551 240.321V240.321Z" fill="#E0E0E0"/>
<path d="M233.084 206.931C232.505 206.931 231.93 206.95 231.358 206.988C227.724 207.244 224.193 208.301 221.016 210.083C217.84 211.865 215.097 214.328 212.984 217.294C210.871 220.261 209.441 223.659 208.796 227.243C208.151 230.828 208.306 234.511 209.252 238.028C211.948 248.526 213.249 259.334 213.12 270.172V301.74C213.12 302.839 213.557 303.892 214.333 304.669C215.11 305.446 216.164 305.882 217.262 305.882H285.192V206.931H233.084Z" fill="#F0F0F0"/>
<path d="M309.873 231.603C309.862 228.095 309.103 224.629 307.647 221.437C306.191 218.246 304.071 215.401 301.429 213.093C298.787 210.785 295.684 209.067 292.325 208.053C288.967 207.039 285.431 206.753 281.953 207.213C278.475 207.673 275.135 208.87 272.156 210.723C269.177 212.576 266.628 215.042 264.677 217.958C262.727 220.874 261.42 224.173 260.845 227.633C260.27 231.094 260.439 234.638 261.341 238.028C264.037 248.526 265.337 259.334 265.209 270.172V301.741C265.209 302.285 265.317 302.825 265.525 303.328C265.734 303.831 266.04 304.288 266.426 304.673C266.811 305.057 267.269 305.362 267.772 305.57C268.276 305.777 268.816 305.884 269.36 305.882H300.995C301.539 305.884 302.078 305.777 302.581 305.57C303.084 305.362 303.542 305.057 303.926 304.672C304.311 304.287 304.616 303.83 304.824 303.327C305.032 302.824 305.138 302.285 305.137 301.741V268.323C305.048 258.154 306.336 248.02 308.967 238.198C309.563 236.05 309.868 233.832 309.873 231.603V231.603Z" fill="#F5F5F5"/>
<path d="M406.202 308.892H234.849C234.05 308.892 233.285 308.575 232.72 308.01C232.156 307.446 231.839 306.681 231.839 305.882H409.211C409.211 306.681 408.894 307.446 408.33 308.01C407.765 308.575 407 308.892 406.202 308.892Z" fill="#E0E0E0"/>
<path d="M64.1848 32.8611H43.5039V308.892H64.1848V32.8611Z" fill="#E6E6E6"/>
<path d="M64.1746 308.892H245.67L245.67 32.8611H64.1746L64.1746 308.892Z" fill="#F5F5F5"/>
<path d="M242.283 308.892L242.283 36.9275L67.5714 36.9275L67.5714 308.892H242.283Z" fill="#E6E6E6"/>
<path d="M82.1953 308.892L82.1953 36.9275H67.5715L67.5715 308.892H82.1953Z" fill="#E0E0E0"/>
<path d="M244.123 260.407V256.35H67.5715V260.407H244.123Z" fill="#F5F5F5"/>
<path d="M244.123 203.422V199.365H67.5715V203.422H244.123Z" fill="#F5F5F5"/>
<path d="M244.123 146.445V142.379H67.5715V146.445H244.123Z" fill="#F5F5F5"/>
<path d="M244.123 89.4505V85.3936L67.5715 85.3936V89.4505L244.123 89.4505Z" fill="#F5F5F5"/>
<path d="M83.1387 85.4028H109.396V46.6923H83.1387V85.4028Z" fill="#FAFAFA"/>
<path d="M112.188 46.6829H107.15C106.358 46.6829 105.716 47.3249 105.716 48.1169V83.9594C105.716 84.7514 106.358 85.3934 107.15 85.3934H112.188C112.98 85.3934 113.622 84.7514 113.622 83.9594V48.1169C113.622 47.3249 112.98 46.6829 112.188 46.6829Z" fill="#F0F0F0"/>
<path d="M74.2891 85.4028H100.546V46.6923H74.2891V85.4028Z" fill="#FAFAFA"/>
<path d="M103.357 46.6829H98.3188C97.5268 46.6829 96.8848 47.3249 96.8848 48.1169V83.9594C96.8848 84.7514 97.5268 85.3934 98.3188 85.3934H103.357C104.149 85.3934 104.791 84.7514 104.791 83.9594V48.1169C104.791 47.3249 104.149 46.6829 103.357 46.6829Z" fill="#E6E6E6"/>
<path d="M67.5713 46.6829H90.2334L88.4314 85.4029H67.5713V46.6829Z" fill="#FAFAFA"/>
<path d="M93.1578 46.6829H87.865C87.4797 46.7209 87.1233 46.9038 86.8676 47.1945C86.6119 47.4852 86.4761 47.8621 86.4875 48.249L84.827 83.8367C84.802 84.0212 84.8144 84.2088 84.8635 84.3884C84.9126 84.568 84.9973 84.7359 85.1126 84.8821C85.228 85.0282 85.3715 85.1496 85.5348 85.2391C85.6981 85.3286 85.8777 85.3843 86.063 85.4029H91.3558C91.7394 85.3606 92.0933 85.1765 92.3481 84.8868C92.6029 84.597 92.7403 84.2225 92.7333 83.8367L94.3938 48.249C94.4202 48.0643 94.4087 47.8762 94.3602 47.6961C94.3117 47.5159 94.227 47.3475 94.1115 47.2011C93.9959 47.0546 93.8518 46.9332 93.6878 46.8441C93.5239 46.755 93.3436 46.7002 93.1578 46.6829V46.6829Z" fill="#F0F0F0"/>
<path d="M204.563 85.3936H224.471V52.7118H204.563V85.3936Z" fill="#FAFAFA"/>
<path d="M226.536 52.7212H222.828C222.198 52.7212 221.687 53.2323 221.687 53.8628V84.2614C221.687 84.8919 222.198 85.403 222.828 85.403H226.536C227.166 85.403 227.678 84.8919 227.678 84.2614V53.8628C227.678 53.2323 227.166 52.7212 226.536 52.7212Z" fill="#F0F0F0"/>
<path d="M197.855 85.3936H217.763V52.7118H197.855V85.3936Z" fill="#FAFAFA"/>
<path d="M219.839 52.7212H216.131C215.5 52.7212 214.989 53.2323 214.989 53.8628V84.2614C214.989 84.8919 215.5 85.403 216.131 85.403H219.839C220.469 85.403 220.98 84.8919 220.98 84.2614V53.8628C220.98 53.2323 220.469 52.7212 219.839 52.7212Z" fill="#E6E6E6"/>
<path d="M192.761 52.7212H209.941L208.573 85.403H192.761V52.7212Z" fill="#FAFAFA"/>
<path d="M212.158 52.7212H208.149C207.602 52.7212 207.139 53.3156 207.101 54.0421L205.847 84.0821C205.847 84.8086 206.234 85.403 206.79 85.403H210.809C211.357 85.403 211.819 84.8086 211.847 84.0821L213.111 54.0421C213.13 53.3156 212.706 52.7212 212.158 52.7212Z" fill="#F0F0F0"/>
<path d="M178.891 85.3936H198.798V52.7118H178.891V85.3936Z" fill="#FAFAFA"/>
<path d="M200.865 52.7212H197.157C196.527 52.7212 196.016 53.2323 196.016 53.8628V84.2614C196.016 84.8919 196.527 85.403 197.157 85.403H200.865C201.496 85.403 202.007 84.8919 202.007 84.2614V53.8628C202.007 53.2323 201.496 52.7212 200.865 52.7212Z" fill="#F0F0F0"/>
<path d="M172.193 85.3936H192.101V52.7118H172.193V85.3936Z" fill="#FAFAFA"/>
<path d="M194.166 52.7212H190.458C189.828 52.7212 189.316 53.2323 189.316 53.8628V84.2614C189.316 84.8919 189.828 85.403 190.458 85.403H194.166C194.796 85.403 195.307 84.8919 195.307 84.2614V53.8628C195.307 53.2323 194.796 52.7212 194.166 52.7212Z" fill="#E6E6E6"/>
<path d="M167.099 52.7212H184.27L182.911 85.403H167.099V52.7212Z" fill="#FAFAFA"/>
<path d="M186.495 52.7212H182.476C181.929 52.7212 181.466 53.3156 181.438 54.0421L180.202 84.0821C180.202 84.8086 180.598 85.403 181.146 85.403H185.155C185.703 85.403 186.165 84.8086 186.203 84.0821L187.457 54.0421C187.457 53.3156 187.042 52.7212 186.495 52.7212Z" fill="#F0F0F0"/>
<path d="M141.388 85.4028H155.267V50.2775H141.388V85.4028Z" fill="#FAFAFA"/>
<path d="M156.522 50.2681H154.324C153.777 50.2681 153.333 50.7116 153.333 51.2587V84.4028C153.333 84.9499 153.777 85.3934 154.324 85.3934H156.522C157.069 85.3934 157.513 84.9499 157.513 84.4028V51.2587C157.513 50.7116 157.069 50.2681 156.522 50.2681Z" fill="#F0F0F0"/>
<path d="M129.831 85.4028H145.125V46.6923H129.831V85.4028Z" fill="#FAFAFA"/>
<path d="M146.502 46.6829H144.087C143.482 46.6829 142.992 47.1728 142.992 47.7773V84.299C142.992 84.9034 143.482 85.3934 144.087 85.3934H146.502C147.106 85.3934 147.596 84.9034 147.596 84.299V47.7773C147.596 47.1728 147.106 46.6829 146.502 46.6829Z" fill="#F5F5F5"/>
<path d="M125.915 46.6829H139.114L138.067 85.4029H125.915V46.6829Z" fill="#FAFAFA"/>
<path d="M140.823 46.6829H137.747C137.332 46.6829 136.964 47.381 136.945 48.249L136.002 83.8367C136.002 84.6953 136.294 85.4029 136.719 85.4029H139.804C140.219 85.4029 140.578 84.6953 140.606 83.8367L141.55 48.249C141.521 47.381 141.238 46.6829 140.823 46.6829Z" fill="#F0F0F0"/>
<path d="M153.04 142.388H179.297V103.678H153.04V142.388Z" fill="#FAFAFA"/>
<path d="M182.099 103.668H177.061C176.269 103.668 175.627 104.311 175.627 105.103V140.945C175.627 141.737 176.269 142.379 177.061 142.379H182.099C182.891 142.379 183.533 141.737 183.533 140.945V105.103C183.533 104.311 182.891 103.668 182.099 103.668Z" fill="#F0F0F0"/>
<path d="M144.209 142.388H170.466V103.678H144.209V142.388Z" fill="#FAFAFA"/>
<path d="M173.258 103.668H168.22C167.428 103.668 166.786 104.311 166.786 105.103V140.945C166.786 141.737 167.428 142.379 168.22 142.379H173.258C174.05 142.379 174.692 141.737 174.692 140.945V105.103C174.692 104.311 174.05 103.668 173.258 103.668Z" fill="#E6E6E6"/>
<path d="M137.482 103.668H160.135L158.333 142.388H137.482V103.668Z" fill="#FAFAFA"/>
<path d="M163.069 103.668H157.776C157.391 103.707 157.034 103.889 156.779 104.18C156.523 104.471 156.387 104.848 156.399 105.235L154.729 140.822C154.702 141.007 154.714 141.195 154.762 141.375C154.811 141.555 154.895 141.724 155.011 141.87C155.127 142.017 155.271 142.138 155.435 142.227C155.599 142.316 155.779 142.371 155.965 142.388H161.257C161.641 142.346 161.995 142.162 162.25 141.872C162.505 141.583 162.642 141.208 162.635 140.822L164.286 105.235C164.314 105.051 164.304 104.864 164.257 104.684C164.21 104.505 164.127 104.337 164.014 104.19C163.9 104.044 163.757 103.922 163.595 103.832C163.433 103.743 163.254 103.687 163.069 103.668V103.668Z" fill="#F0F0F0"/>
<path d="M193.288 142.379H209.374V109.697H193.288V142.379Z" fill="#FAFAFA"/>
<path d="M210.941 109.707H208.157C207.589 109.707 207.129 110.167 207.129 110.735V141.36C207.129 141.928 207.589 142.388 208.157 142.388H210.941C211.508 142.388 211.969 141.928 211.969 141.36V110.735C211.969 110.167 211.508 109.707 210.941 109.707Z" fill="#F0F0F0"/>
<path d="M187.873 142.379H203.959V109.697H187.873V142.379Z" fill="#FAFAFA"/>
<path d="M205.525 109.707H202.742C202.174 109.707 201.714 110.167 201.714 110.735V141.36C201.714 141.928 202.174 142.388 202.742 142.388H205.525C206.093 142.388 206.554 141.928 206.554 141.36V110.735C206.554 110.167 206.093 109.707 205.525 109.707Z" fill="#E6E6E6"/>
<path d="M183.751 109.707H197.639L196.535 142.388H183.751V109.707Z" fill="#FAFAFA"/>
<path d="M199.43 109.707H196.185C195.741 109.707 195.364 110.301 195.345 111.027L194.354 141.067C194.354 141.794 194.666 142.388 195.109 142.388H198.355C198.798 142.388 199.176 141.794 199.194 141.067L200.213 111.027C200.213 110.301 199.874 109.707 199.43 109.707Z" fill="#F0F0F0"/>
<path d="M220.13 142.388H233.452V115.32H220.13V142.388Z" fill="#FAFAFA"/>
<path d="M234.745 115.311H232.433C231.964 115.311 231.584 115.691 231.584 116.16V141.53C231.584 141.999 231.964 142.379 232.433 142.379H234.745C235.214 142.379 235.594 141.999 235.594 141.53V116.16C235.594 115.691 235.214 115.311 234.745 115.311Z" fill="#F0F0F0"/>
<path d="M215.639 142.388H228.961V115.32H215.639V142.388Z" fill="#FAFAFA"/>
<path d="M230.263 115.311H227.952C227.483 115.311 227.103 115.691 227.103 116.16V141.53C227.103 141.999 227.483 142.379 227.952 142.379H230.263C230.732 142.379 231.112 141.999 231.112 141.53V116.16C231.112 115.691 230.732 115.311 230.263 115.311Z" fill="#E6E6E6"/>
<path d="M212.225 115.311H223.726L222.81 142.388H212.225V115.311Z" fill="#FAFAFA"/>
<path d="M225.215 115.311H222.526C222.158 115.311 221.847 115.801 221.828 116.405L220.988 141.294C220.988 141.898 221.243 142.388 221.611 142.388H224.3C224.658 142.388 224.979 141.898 224.998 141.294L225.838 116.405C225.857 115.801 225.574 115.311 225.215 115.311Z" fill="#F0F0F0"/>
<path d="M110.951 142.379H130.858V109.697H110.951V142.379Z" fill="#FAFAFA"/>
<path d="M132.934 109.707H129.227C128.596 109.707 128.085 110.218 128.085 110.848V141.247C128.085 141.877 128.596 142.388 129.227 142.388H132.934C133.565 142.388 134.076 141.877 134.076 141.247V110.848C134.076 110.218 133.565 109.707 132.934 109.707Z" fill="#F0F0F0"/>
<path d="M104.263 142.379H124.17V109.697H104.263V142.379Z" fill="#FAFAFA"/>
<path d="M126.226 109.707H122.519C121.888 109.707 121.377 110.218 121.377 110.848V141.247C121.377 141.877 121.888 142.388 122.519 142.388H126.226C126.857 142.388 127.368 141.877 127.368 141.247V110.848C127.368 110.218 126.857 109.707 126.226 109.707Z" fill="#E6E6E6"/>
<path d="M99.1592 109.707H116.34L114.972 142.388H99.1592V109.707Z" fill="#FAFAFA"/>
<path d="M118.557 109.707H114.547C114.24 109.757 113.962 109.921 113.769 110.165C113.575 110.409 113.479 110.717 113.5 111.027L112.273 141.067C112.273 141.794 112.66 142.388 113.217 142.388H117.227C117.534 142.337 117.812 142.174 118.005 141.93C118.199 141.686 118.294 141.378 118.274 141.067L119.529 111.027C119.529 110.301 119.104 109.707 118.557 109.707Z" fill="#F0F0F0"/>
<path d="M83.0434 142.388H96.9219V107.263H83.0434V142.388Z" fill="#FAFAFA"/>
<path d="M98.1674 107.254H95.9692C95.422 107.254 94.9785 107.697 94.9785 108.244V141.388C94.9785 141.936 95.422 142.379 95.9692 142.379H98.1674C98.7146 142.379 99.1581 141.936 99.1581 141.388V108.244C99.1581 107.697 98.7146 107.254 98.1674 107.254Z" fill="#F0F0F0"/>
<path d="M71.4876 142.388H86.7812V103.678H71.4876V142.388Z" fill="#FAFAFA"/>
<path d="M88.1484 103.668H85.7331C85.1287 103.668 84.6387 104.158 84.6387 104.763V141.285C84.6387 141.889 85.1287 142.379 85.7331 142.379H88.1484C88.7528 142.379 89.2428 141.889 89.2428 141.285V104.763C89.2428 104.158 88.7528 103.668 88.1484 103.668Z" fill="#F5F5F5"/>
<path d="M67.5713 103.668H80.7704L79.7232 142.388H67.5713V103.668Z" fill="#FAFAFA"/>
<path d="M82.478 103.668H79.3929C78.9683 103.668 78.6098 104.367 78.5909 105.235L77.6475 140.822C77.6475 141.681 77.9494 142.388 78.3739 142.388H81.4213C81.8459 142.388 82.2044 141.681 82.2233 140.822L83.1668 105.235C83.2139 104.367 82.8931 103.668 82.478 103.668Z" fill="#F0F0F0"/>
<path d="M83.1387 199.374H109.396V160.663H83.1387V199.374Z" fill="#FAFAFA"/>
<path d="M112.188 160.654H107.15C106.358 160.654 105.716 161.296 105.716 162.088V197.931C105.716 198.723 106.358 199.365 107.15 199.365H112.188C112.98 199.365 113.622 198.723 113.622 197.931V162.088C113.622 161.296 112.98 160.654 112.188 160.654Z" fill="#F0F0F0"/>
<path d="M74.2891 199.374H100.546V160.663H74.2891V199.374Z" fill="#FAFAFA"/>
<path d="M103.357 160.654H98.3188C97.5268 160.654 96.8848 161.296 96.8848 162.088V197.931C96.8848 198.723 97.5268 199.365 98.3188 199.365H103.357C104.149 199.365 104.791 198.723 104.791 197.931V162.088C104.791 161.296 104.149 160.654 103.357 160.654Z" fill="#E6E6E6"/>
<path d="M67.5713 160.654H90.2334L88.4314 199.374H67.5713V160.654Z" fill="#FAFAFA"/>
<path d="M93.1578 160.654H87.865C87.4797 160.692 87.1233 160.875 86.8676 161.166C86.6119 161.456 86.4761 161.833 86.4875 162.22L84.827 197.808C84.802 197.992 84.8144 198.18 84.8635 198.36C84.9126 198.539 84.9973 198.707 85.1126 198.853C85.228 198.999 85.3715 199.121 85.5348 199.21C85.6981 199.3 85.8777 199.355 86.063 199.374H91.3558C91.7394 199.332 92.0933 199.148 92.3481 198.858C92.6029 198.568 92.7403 198.194 92.7333 197.808L94.3938 162.22C94.4202 162.036 94.4087 161.847 94.3602 161.667C94.3117 161.487 94.227 161.319 94.1115 161.172C93.9959 161.026 93.8518 160.904 93.6878 160.815C93.5239 160.726 93.3436 160.671 93.1578 160.654V160.654Z" fill="#F0F0F0"/>
<path d="M204.563 199.365H224.471V166.683H204.563V199.365Z" fill="#FAFAFA"/>
<path d="M226.536 166.692H222.828C222.198 166.692 221.687 167.203 221.687 167.834V198.232C221.687 198.863 222.198 199.374 222.828 199.374H226.536C227.166 199.374 227.678 198.863 227.678 198.232V167.834C227.678 167.203 227.166 166.692 226.536 166.692Z" fill="#F0F0F0"/>
<path d="M197.855 199.365H217.763V166.683H197.855V199.365Z" fill="#FAFAFA"/>
<path d="M219.839 166.692H216.131C215.5 166.692 214.989 167.203 214.989 167.834V198.232C214.989 198.863 215.5 199.374 216.131 199.374H219.839C220.469 199.374 220.98 198.863 220.98 198.232V167.834C220.98 167.203 220.469 166.692 219.839 166.692Z" fill="#E6E6E6"/>
<path d="M192.761 166.692H209.941L208.573 199.374H192.761V166.692Z" fill="#FAFAFA"/>
<path d="M212.158 166.692H208.149C207.602 166.692 207.139 167.287 207.101 168.013L205.847 198.053C205.847 198.78 206.234 199.374 206.79 199.374H210.809C211.357 199.374 211.819 198.78 211.847 198.053L213.111 168.013C213.13 167.287 212.706 166.692 212.158 166.692Z" fill="#F0F0F0"/>
<path d="M178.891 199.365H198.798V166.683H178.891V199.365Z" fill="#FAFAFA"/>
<path d="M200.865 166.692H197.157C196.527 166.692 196.016 167.203 196.016 167.834V198.232C196.016 198.863 196.527 199.374 197.157 199.374H200.865C201.496 199.374 202.007 198.863 202.007 198.232V167.834C202.007 167.203 201.496 166.692 200.865 166.692Z" fill="#F0F0F0"/>
<path d="M172.193 199.365H192.101V166.683H172.193V199.365Z" fill="#FAFAFA"/>
<path d="M194.166 166.692H190.458C189.828 166.692 189.316 167.203 189.316 167.834V198.232C189.316 198.863 189.828 199.374 190.458 199.374H194.166C194.796 199.374 195.307 198.863 195.307 198.232V167.834C195.307 167.203 194.796 166.692 194.166 166.692Z" fill="#E6E6E6"/>
<path d="M167.099 166.692H184.27L182.911 199.374H167.099V166.692Z" fill="#FAFAFA"/>
<path d="M186.495 166.692H182.476C181.929 166.692 181.466 167.287 181.438 168.013L180.202 198.053C180.202 198.78 180.598 199.374 181.146 199.374H185.155C185.703 199.374 186.165 198.78 186.203 198.053L187.457 168.013C187.457 167.287 187.042 166.692 186.495 166.692Z" fill="#F0F0F0"/>
<path d="M141.388 199.374H155.267V164.249H141.388V199.374Z" fill="#FAFAFA"/>
<path d="M156.522 164.239H154.324C153.777 164.239 153.333 164.683 153.333 165.23V198.374C153.333 198.921 153.777 199.365 154.324 199.365H156.522C157.069 199.365 157.513 198.921 157.513 198.374V165.23C157.513 164.683 157.069 164.239 156.522 164.239Z" fill="#F0F0F0"/>
<path d="M129.831 199.374H145.125V160.663H129.831V199.374Z" fill="#FAFAFA"/>
<path d="M146.502 160.654H144.087C143.482 160.654 142.992 161.144 142.992 161.748V198.27C142.992 198.875 143.482 199.365 144.087 199.365H146.502C147.106 199.365 147.596 198.875 147.596 198.27V161.748C147.596 161.144 147.106 160.654 146.502 160.654Z" fill="#F5F5F5"/>
<path d="M125.915 160.654H139.114L138.067 199.374H125.915V160.654Z" fill="#FAFAFA"/>
<path d="M140.823 160.654H137.747C137.332 160.654 136.964 161.352 136.945 162.22L136.002 197.808C136.002 198.666 136.294 199.374 136.719 199.374H139.804C140.219 199.374 140.578 198.666 140.606 197.808L141.55 162.22C141.521 161.333 141.238 160.654 140.823 160.654Z" fill="#F0F0F0"/>
<path d="M77.5344 308.892H94.3564V270.181H77.5344V308.892Z" fill="#FAFAFA"/>
<path d="M95.9317 270.172H93.1484C92.518 270.172 92.0068 270.683 92.0068 271.314V307.741C92.0068 308.372 92.518 308.883 93.1484 308.883H95.9317C96.5622 308.883 97.0733 308.372 97.0733 307.741V271.314C97.0733 270.683 96.5622 270.172 95.9317 270.172Z" fill="#F0F0F0"/>
<path d="M71.883 308.892H88.7051V270.181H71.883V308.892Z" fill="#FAFAFA"/>
<path d="M90.2715 270.172H87.4883C86.8578 270.172 86.3467 270.683 86.3467 271.314V307.741C86.3467 308.372 86.8578 308.883 87.4883 308.883H90.2715C90.902 308.883 91.4131 308.372 91.4131 307.741V271.314C91.4131 270.683 90.902 270.172 90.2715 270.172Z" fill="#E6E6E6"/>
<path d="M67.5713 270.181H82.0819L80.9308 308.892H67.5713V270.181Z" fill="#FAFAFA"/>
<path d="M83.9689 270.172H80.5725C80.1102 270.172 79.7139 270.88 79.6856 271.738L78.6289 307.326C78.6289 308.194 78.9591 308.892 79.4214 308.892H82.8085C83.2708 308.892 83.667 308.194 83.6953 307.326L84.752 271.719C84.7803 270.88 84.4218 270.172 83.9689 270.172Z" fill="#F0F0F0"/>
<path d="M218.281 308.892H235.82V276.21H218.281V308.892Z" fill="#FAFAFA"/>
<path d="M237.575 276.21H234.443C233.849 276.21 233.367 276.692 233.367 277.286V307.816C233.367 308.41 233.849 308.892 234.443 308.892H237.575C238.169 308.892 238.651 308.41 238.651 307.816V277.286C238.651 276.692 238.169 276.21 237.575 276.21Z" fill="#F0F0F0"/>
<path d="M212.375 308.892H229.914V276.21H212.375V308.892Z" fill="#FAFAFA"/>
<path d="M231.669 276.21H228.536C227.942 276.21 227.461 276.692 227.461 277.286V307.816C227.461 308.41 227.942 308.892 228.536 308.892H231.669C232.263 308.892 232.744 308.41 232.744 307.816V277.286C232.744 276.692 232.263 276.21 231.669 276.21Z" fill="#E6E6E6"/>
<path d="M207.885 276.21H223.018L221.81 308.892H207.885V276.21Z" fill="#FAFAFA"/>
<path d="M224.98 276.21H221.442C220.96 276.21 220.498 276.805 220.498 277.531L219.413 307.571C219.413 308.298 219.753 308.892 220.234 308.892H223.772C224.253 308.892 224.668 308.298 224.715 307.571L225.819 277.531C225.829 276.805 225.489 276.21 224.98 276.21Z" fill="#F0F0F0"/>
<path d="M195.657 308.892H213.196V276.21H195.657V308.892Z" fill="#FAFAFA"/>
<path d="M214.95 276.21H211.818C211.224 276.21 210.742 276.692 210.742 277.286V307.816C210.742 308.41 211.224 308.892 211.818 308.892H214.95C215.544 308.892 216.026 308.41 216.026 307.816V277.286C216.026 276.692 215.544 276.21 214.95 276.21Z" fill="#F0F0F0"/>
<path d="M189.751 308.892H207.29V276.21H189.751V308.892Z" fill="#FAFAFA"/>
<path d="M209.044 276.21H205.911C205.317 276.21 204.836 276.692 204.836 277.286V307.816C204.836 308.41 205.317 308.892 205.911 308.892H209.044C209.638 308.892 210.119 308.41 210.119 307.816V277.286C210.119 276.692 209.638 276.21 209.044 276.21Z" fill="#E6E6E6"/>
<path d="M185.26 276.21H200.393L199.195 308.892H185.26V276.21Z" fill="#FAFAFA"/>
<path d="M202.356 276.21H198.818C198.336 276.21 197.921 276.805 197.874 277.531L196.789 307.571C196.789 308.298 197.129 308.892 197.61 308.892H201.148C201.629 308.892 202.091 308.298 202.091 307.571L203.195 277.531C203.205 276.805 202.846 276.21 202.356 276.21Z" fill="#F0F0F0"/>
<path d="M177.646 308.892H189.873V273.767H177.646V308.892Z" fill="#FAFAFA"/>
<path d="M189.1 273.767H190.921C191.171 273.767 191.411 273.866 191.588 274.043C191.765 274.22 191.864 274.46 191.864 274.71V307.977C191.864 308.227 191.765 308.467 191.588 308.644C191.411 308.821 191.171 308.92 190.921 308.92H189.1C188.849 308.92 188.61 308.821 188.433 308.644C188.256 308.467 188.156 308.227 188.156 307.977V274.691C188.161 274.444 188.263 274.209 188.439 274.036C188.616 273.863 188.853 273.767 189.1 273.767V273.767Z" fill="#F0F0F0"/>
<path d="M167.466 308.892H180.938V270.181H167.466V308.892Z" fill="#FAFAFA"/>
<path d="M182.08 270.172H180.08C179.512 270.172 179.052 270.633 179.052 271.201V307.854C179.052 308.422 179.512 308.883 180.08 308.883H182.08C182.648 308.883 183.109 308.422 183.109 307.854V271.201C183.109 270.633 182.648 270.172 182.08 270.172Z" fill="#F5F5F5"/>
<path d="M164.013 270.181H175.646L174.721 308.892H164.013V270.181Z" fill="#FAFAFA"/>
<path d="M177.145 270.172H174.428C174.06 270.172 173.739 270.88 173.72 271.738L172.871 307.326C172.871 308.194 173.135 308.892 173.503 308.892H176.22C176.588 308.892 176.909 308.194 176.928 307.326L177.777 271.738C177.796 270.88 177.513 270.172 177.145 270.172Z" fill="#F0F0F0"/>
<path d="M153.04 256.36H179.297V217.649H153.04V256.36Z" fill="#FAFAFA"/>
<path d="M182.099 217.64H177.061C176.269 217.64 175.627 218.282 175.627 219.074V254.916C175.627 255.708 176.269 256.35 177.061 256.35H182.099C182.891 256.35 183.533 255.708 183.533 254.916V219.074C183.533 218.282 182.891 217.64 182.099 217.64Z" fill="#F0F0F0"/>
<path d="M144.209 256.36H170.466V217.649H144.209V256.36Z" fill="#FAFAFA"/>
<path d="M173.258 217.64H168.22C167.428 217.64 166.786 218.282 166.786 219.074V254.916C166.786 255.708 167.428 256.35 168.22 256.35H173.258C174.05 256.35 174.692 255.708 174.692 254.916V219.074C174.692 218.282 174.05 217.64 173.258 217.64Z" fill="#E6E6E6"/>
<path d="M137.482 217.64H160.135L158.333 256.36H137.482V217.64Z" fill="#FAFAFA"/>
<path d="M163.069 217.64H157.776C157.392 217.68 157.037 217.863 156.781 218.154C156.526 218.444 156.389 218.819 156.399 219.206L154.729 254.793C154.702 254.978 154.714 255.166 154.762 255.346C154.811 255.527 154.895 255.695 155.011 255.841C155.127 255.988 155.271 256.109 155.435 256.198C155.599 256.288 155.779 256.342 155.965 256.36H161.257C161.641 256.317 161.995 256.133 162.25 255.844C162.505 255.554 162.642 255.179 162.635 254.793L164.286 219.206C164.312 219.023 164.302 218.836 164.254 218.657C164.207 218.478 164.124 218.31 164.01 218.164C163.897 218.018 163.755 217.896 163.593 217.806C163.431 217.716 163.253 217.659 163.069 217.64V217.64Z" fill="#F0F0F0"/>
<path d="M193.288 256.35H209.374V223.669H193.288V256.35Z" fill="#FAFAFA"/>
<path d="M210.941 223.678H208.157C207.589 223.678 207.129 224.138 207.129 224.706V255.331C207.129 255.899 207.589 256.36 208.157 256.36H210.941C211.508 256.36 211.969 255.899 211.969 255.331V224.706C211.969 224.138 211.508 223.678 210.941 223.678Z" fill="#F0F0F0"/>
<path d="M187.873 256.35H203.959V223.669H187.873V256.35Z" fill="#FAFAFA"/>
<path d="M205.525 223.678H202.742C202.174 223.678 201.714 224.138 201.714 224.706V255.331C201.714 255.899 202.174 256.36 202.742 256.36H205.525C206.093 256.36 206.554 255.899 206.554 255.331V224.706C206.554 224.138 206.093 223.678 205.525 223.678Z" fill="#E6E6E6"/>
<path d="M183.751 223.678H197.639L196.535 256.36H183.751V223.678Z" fill="#FAFAFA"/>
<path d="M199.43 223.678H196.185C195.741 223.678 195.364 224.272 195.345 224.999L194.354 255.039C194.354 255.765 194.666 256.36 195.109 256.36H198.355C198.798 256.36 199.176 255.765 199.194 255.039L200.213 224.999C200.213 224.272 199.874 223.678 199.43 223.678Z" fill="#F0F0F0"/>
<path d="M220.13 256.36H233.452V229.291H220.13V256.36Z" fill="#FAFAFA"/>
<path d="M234.745 229.282H232.433C231.964 229.282 231.584 229.662 231.584 230.131V255.501C231.584 255.97 231.964 256.35 232.433 256.35H234.745C235.214 256.35 235.594 255.97 235.594 255.501V230.131C235.594 229.662 235.214 229.282 234.745 229.282Z" fill="#F0F0F0"/>
<path d="M215.639 256.36H228.961V229.291H215.639V256.36Z" fill="#FAFAFA"/>
<path d="M230.263 229.282H227.952C227.483 229.282 227.103 229.662 227.103 230.131V255.501C227.103 255.97 227.483 256.35 227.952 256.35H230.263C230.732 256.35 231.112 255.97 231.112 255.501V230.131C231.112 229.662 230.732 229.282 230.263 229.282Z" fill="#E6E6E6"/>
<path d="M212.225 229.282H223.726L222.81 256.36H212.225V229.282Z" fill="#FAFAFA"/>
<path d="M225.215 229.263H222.526C222.158 229.263 221.847 229.754 221.828 230.358L220.988 255.246C220.988 255.85 221.243 256.341 221.611 256.341H224.3C224.658 256.341 224.979 255.85 224.998 255.246L225.838 230.358C225.857 229.773 225.574 229.263 225.215 229.263Z" fill="#F0F0F0"/>
<path d="M110.951 256.35H130.858V223.669H110.951V256.35Z" fill="#FAFAFA"/>
<path d="M132.934 223.678H129.227C128.596 223.678 128.085 224.189 128.085 224.819V255.218C128.085 255.848 128.596 256.36 129.227 256.36H132.934C133.565 256.36 134.076 255.848 134.076 255.218V224.819C134.076 224.189 133.565 223.678 132.934 223.678Z" fill="#F0F0F0"/>
<path d="M104.263 256.35H124.17V223.669H104.263V256.35Z" fill="#FAFAFA"/>
<path d="M126.226 223.678H122.519C121.888 223.678 121.377 224.189 121.377 224.819V255.218C121.377 255.848 121.888 256.36 122.519 256.36H126.226C126.857 256.36 127.368 255.848 127.368 255.218V224.819C127.368 224.189 126.857 223.678 126.226 223.678Z" fill="#E6E6E6"/>
<path d="M99.1592 223.678H116.34L114.972 256.36H99.1592V223.678Z" fill="#FAFAFA"/>
<path d="M118.557 223.678H114.547C114.24 223.729 113.962 223.892 113.769 224.136C113.575 224.38 113.479 224.688 113.5 224.999L112.273 255.039C112.273 255.765 112.66 256.36 113.217 256.36H117.227C117.534 256.309 117.812 256.145 118.005 255.901C118.199 255.657 118.294 255.35 118.274 255.039L119.529 224.999C119.529 224.272 119.104 223.678 118.557 223.678Z" fill="#F0F0F0"/>
<path d="M83.0434 256.36H96.9219V221.234H83.0434V256.36Z" fill="#FAFAFA"/>
<path d="M98.1674 221.225H95.9692C95.422 221.225 94.9785 221.668 94.9785 222.215V255.36C94.9785 255.907 95.422 256.35 95.9692 256.35H98.1674C98.7146 256.35 99.1581 255.907 99.1581 255.36V222.215C99.1581 221.668 98.7146 221.225 98.1674 221.225Z" fill="#F0F0F0"/>
<path d="M71.4876 256.36H86.7812V217.649H71.4876V256.36Z" fill="#FAFAFA"/>
<path d="M88.1484 217.64H85.7331C85.1287 217.64 84.6387 218.13 84.6387 218.734V255.256C84.6387 255.86 85.1287 256.35 85.7331 256.35H88.1484C88.7528 256.35 89.2428 255.86 89.2428 255.256V218.734C89.2428 218.13 88.7528 217.64 88.1484 217.64Z" fill="#F5F5F5"/>
<path d="M67.5713 217.64H80.7704L79.7232 256.36H67.5713V217.64Z" fill="#FAFAFA"/>
<path d="M82.478 217.64H79.3929C78.9683 217.64 78.6098 218.347 78.5909 219.206L77.6475 254.793C77.6475 255.652 77.9494 256.36 78.3739 256.36H81.4213C81.8459 256.36 82.2044 255.652 82.2233 254.793L83.1668 219.206C83.2139 218.347 82.8931 217.64 82.478 217.64Z" fill="#F0F0F0"/>
<path d="M145.615 308.892H165.079V267.077H145.615V308.892Z" fill="#FAFAFA"/>
<path d="M166.938 267.077H163.645C162.937 267.077 162.362 267.652 162.362 268.361V307.609C162.362 308.318 162.937 308.892 163.645 308.892H166.938C167.647 308.892 168.221 308.318 168.221 307.609V268.361C168.221 267.652 167.647 267.077 166.938 267.077Z" fill="#F0F0F0"/>
<path d="M139.067 308.892H158.531V267.077H139.067V308.892Z" fill="#FAFAFA"/>
<path d="M160.381 267.077H157.088C156.379 267.077 155.805 267.652 155.805 268.361V307.609C155.805 308.318 156.379 308.892 157.088 308.892H160.381C161.089 308.892 161.664 308.318 161.664 307.609V268.361C161.664 267.652 161.089 267.077 160.381 267.077Z" fill="#E6E6E6"/>
<path d="M134.076 267.077H150.87L149.54 308.892H134.076V267.077Z" fill="#FAFAFA"/>
<path d="M153.05 267.077H149.125C148.587 267.077 148.125 267.832 148.097 268.766L146.87 307.203C146.87 308.147 147.248 308.892 147.814 308.892H151.738C152.276 308.892 152.682 308.137 152.757 307.203L153.984 268.766C153.993 267.832 153.578 267.077 153.05 267.077Z" fill="#F0F0F0"/>
<path d="M116.594 308.892H133.416V272.493H116.594V308.892Z" fill="#FAFAFA"/>
<path d="M135.021 272.493H132.181C131.566 272.493 131.067 272.991 131.067 273.606V307.779C131.067 308.394 131.566 308.892 132.181 308.892H135.021C135.635 308.892 136.134 308.394 136.134 307.779V273.606C136.134 272.991 135.635 272.493 135.021 272.493Z" fill="#F0F0F0"/>
<path d="M110.934 308.892H127.756V272.493H110.934V308.892Z" fill="#FAFAFA"/>
<path d="M129.359 272.493H126.52C125.905 272.493 125.406 272.991 125.406 273.606V307.779C125.406 308.394 125.905 308.892 126.52 308.892H129.359C129.974 308.892 130.473 308.394 130.473 307.779V273.606C130.473 272.991 129.974 272.493 129.359 272.493Z" fill="#E6E6E6"/>
<path d="M106.632 272.493H121.142L119.991 308.892H106.632V272.493Z" fill="#FAFAFA"/>
<path d="M123.019 272.493H119.632C119.17 272.493 118.773 273.153 118.745 273.965L117.688 307.42C117.688 308.232 118.009 308.892 118.472 308.892H121.868C122.33 308.892 122.727 308.232 122.745 307.42L123.812 273.965C123.84 273.153 123.481 272.493 123.019 272.493Z" fill="#F0F0F0"/>
<path d="M235.868 351.499C336.897 351.499 418.797 346.717 418.797 340.819C418.797 334.921 336.897 330.139 235.868 330.139C134.839 330.139 52.9385 334.921 52.9385 340.819C52.9385 346.717 134.839 351.499 235.868 351.499Z" fill="#F5F5F5"/>
<path d="M217.121 338.347C217.216 338.638 217.239 338.948 217.188 339.25C217.137 339.551 217.013 339.836 216.827 340.079C216.642 340.323 216.4 340.517 216.122 340.646C215.844 340.775 215.54 340.834 215.234 340.819H83.8085C79.7044 340.819 79.7044 314.091 83.8085 314.091H215.272C215.576 314.076 215.88 314.135 216.156 314.264C216.433 314.392 216.675 314.586 216.86 314.828C217.045 315.07 217.17 315.353 217.222 315.654C217.274 315.954 217.252 316.263 217.159 316.553C215.517 321.648 215.517 333.262 217.121 338.347Z" fill="#407BFF"/>
<path opacity="0.8" d="M216.932 317.213H137.181C134.039 317.213 134.039 337.696 137.181 337.696H216.932C215.583 332.554 215.583 322.346 216.932 317.213Z" fill="white"/>
<path opacity="0.2" d="M133.209 338.347C133.304 338.638 133.327 338.948 133.276 339.25C133.225 339.551 133.101 339.836 132.915 340.079C132.73 340.323 132.487 340.517 132.21 340.646C131.932 340.775 131.627 340.834 131.322 340.819H83.8085C79.7044 340.819 79.7044 314.091 83.8085 314.091H131.359C131.664 314.076 131.968 314.135 132.244 314.264C132.521 314.392 132.762 314.586 132.948 314.828C133.133 315.07 133.257 315.353 133.309 315.654C133.361 315.954 133.34 316.263 133.246 316.553C131.605 321.648 131.605 333.262 133.209 338.347Z" fill="black"/>
<path d="M104.074 314.091H93.2148C89.1107 314.091 89.1107 340.819 93.2148 340.819H104.074C100.008 340.819 100.008 314.091 104.074 314.091Z" fill="#407BFF"/>
<path d="M112.632 314.091H108.367C104.263 314.091 104.263 340.819 108.367 340.819H112.632C108.499 340.819 108.499 314.091 112.632 314.091Z" fill="#407BFF"/>
<path d="M76.1476 311.873C75.6948 312.968 76.8081 314.09 78.3176 314.09H196.516C201.337 314.09 201.337 290.06 196.516 290.06H78.3082C76.7986 290.06 75.6853 291.174 76.1382 292.277C78.0251 296.853 78.0251 307.297 76.1476 311.873Z" fill="#263238"/>
<path opacity="0.2" d="M76.1476 311.873C75.6948 312.968 76.8081 314.09 78.3176 314.09H136.275C141.096 314.09 141.096 290.06 136.275 290.06H78.3082C76.7986 290.06 75.6853 291.174 76.1382 292.277C78.0251 296.853 78.0251 307.297 76.1476 311.873Z" fill="black"/>
<path opacity="0.8" d="M76.3545 292.863H133.906C137.595 292.863 137.595 311.279 133.906 311.279H76.3545C77.9395 306.628 77.9395 297.486 76.3545 292.863Z" fill="white"/>
<path opacity="0.2" d="M153.022 295.419C152.663 294.353 153.701 293.315 155.135 293.315H188.222C191.732 293.315 191.732 310.826 188.222 310.826H155.135C153.701 310.826 152.663 309.798 153.022 308.732C154.154 304.366 154.154 299.785 153.022 295.419V295.419Z" fill="white"/>
<path d="M392.228 301.146C392.333 301.465 392.363 301.804 392.316 302.136C392.269 302.469 392.147 302.786 391.958 303.064C391.769 303.342 391.52 303.573 391.228 303.739C390.936 303.906 390.61 304.003 390.275 304.024H251.397C247.057 304.024 247.057 272.889 251.397 272.889H390.275C390.605 272.912 390.925 273.009 391.212 273.172C391.5 273.336 391.746 273.562 391.934 273.834C392.121 274.106 392.245 274.417 392.296 274.743C392.347 275.07 392.324 275.403 392.228 275.72C390.54 281.711 390.54 295.231 392.228 301.146Z" fill="#407BFF"/>
<path opacity="0.5" d="M392.228 301.146C392.333 301.465 392.363 301.804 392.316 302.136C392.269 302.469 392.147 302.786 391.958 303.064C391.769 303.342 391.52 303.573 391.228 303.739C390.936 303.906 390.61 304.003 390.275 304.024H251.397C247.057 304.024 247.057 272.889 251.397 272.889H390.275C390.605 272.912 390.925 273.009 391.212 273.172C391.5 273.336 391.746 273.562 391.934 273.834C392.121 274.106 392.245 274.417 392.296 274.743C392.347 275.07 392.324 275.403 392.228 275.72C390.54 281.711 390.54 295.231 392.228 301.146Z" fill="white"/>
<path opacity="0.8" d="M392.04 276.55H307.779C304.458 276.55 304.458 300.382 307.779 300.382H392.04C390.597 294.41 390.597 282.531 392.04 276.55Z" fill="white"/>
<path opacity="0.6" d="M303.58 301.146C303.684 301.465 303.714 301.804 303.667 302.136C303.62 302.469 303.498 302.786 303.31 303.064C303.121 303.342 302.871 303.573 302.58 303.739C302.288 303.906 301.962 304.003 301.627 304.024H251.397C247.057 304.024 247.057 272.889 251.397 272.889H301.627C301.957 272.912 302.277 273.009 302.564 273.172C302.851 273.336 303.098 273.562 303.285 273.834C303.473 274.106 303.597 274.417 303.648 274.743C303.699 275.07 303.676 275.403 303.58 275.72C301.91 281.711 301.91 295.231 303.58 301.146Z" fill="#407BFF"/>
<path opacity="0.5" d="M283.202 275.22C283.3 274.976 283.34 274.712 283.318 274.45C283.296 274.188 283.213 273.935 283.075 273.711C282.937 273.487 282.749 273.299 282.525 273.161C282.301 273.023 282.048 272.94 281.786 272.917H262.634C258.294 272.917 258.294 304.052 262.634 304.052H281.786C282.049 304.028 282.302 303.944 282.525 303.805C282.749 303.666 282.937 303.476 283.075 303.252C283.212 303.027 283.295 302.774 283.317 302.511C283.339 302.249 283.3 301.985 283.202 301.741C281.267 295.957 281.267 280.984 283.202 275.22Z" fill="white"/>
<path d="M382.267 337.394C382.378 337.808 382.39 338.242 382.3 338.661C382.211 339.081 382.023 339.472 381.751 339.804C381.48 340.136 381.134 340.399 380.741 340.57C380.348 340.742 379.92 340.817 379.493 340.791H235.198C229.038 340.791 229.028 303.995 235.198 303.995H379.549C379.977 303.968 380.405 304.044 380.798 304.215C381.191 304.387 381.537 304.65 381.808 304.982C382.079 305.313 382.267 305.705 382.357 306.124C382.446 306.544 382.435 306.978 382.323 307.392C379.861 314.402 379.87 330.394 382.267 337.394Z" fill="#407BFF"/>
<path opacity="0.2" d="M382.267 337.394C382.378 337.808 382.39 338.242 382.3 338.661C382.211 339.081 382.023 339.472 381.751 339.804C381.48 340.136 381.134 340.399 380.741 340.57C380.348 340.742 379.92 340.817 379.493 340.791H235.198C229.038 340.791 229.028 303.995 235.198 303.995H379.549C379.977 303.968 380.405 304.044 380.798 304.215C381.191 304.387 381.537 304.65 381.808 304.982C382.079 305.313 382.267 305.705 382.357 306.124C382.446 306.544 382.435 306.978 382.323 307.392C379.861 314.402 379.87 330.394 382.267 337.394Z" fill="white"/>
<path opacity="0.8" d="M381.983 308.298H294.74C290.023 308.298 290.023 336.488 294.74 336.488H381.992C379.973 329.422 379.973 315.374 381.983 308.298Z" fill="white"/>
<path opacity="0.6" d="M288.778 337.413C288.892 337.826 288.905 338.261 288.817 338.68C288.729 339.099 288.541 339.491 288.271 339.824C288 340.156 287.655 340.419 287.262 340.59C286.869 340.762 286.441 340.837 286.014 340.81H235.198C229.038 340.81 229.028 304.014 235.198 304.014H286.014C286.441 303.988 286.869 304.063 287.262 304.234C287.655 304.406 288.001 304.669 288.272 305.001C288.544 305.333 288.732 305.724 288.821 306.143C288.911 306.563 288.899 306.997 288.787 307.411C286.382 314.421 286.382 330.403 288.778 337.413Z" fill="#407BFF"/>
<path opacity="0.5" d="M258.34 305.297C258.419 305.163 258.459 305.009 258.456 304.853C258.453 304.697 258.407 304.545 258.323 304.413C258.239 304.281 258.12 304.175 257.98 304.107C257.84 304.038 257.684 304.009 257.529 304.024H248.896C242.744 304.024 242.744 340.819 248.896 340.819H257.566C257.722 340.833 257.878 340.805 258.018 340.736C258.158 340.667 258.277 340.561 258.361 340.43C258.444 340.298 258.49 340.146 258.493 339.99C258.496 339.834 258.456 339.68 258.378 339.545C254.632 333.856 254.632 310.977 258.34 305.297Z" fill="white"/>
<path opacity="0.5" d="M271.814 305.297C271.891 305.162 271.931 305.008 271.927 304.852C271.924 304.696 271.878 304.543 271.794 304.411C271.711 304.279 271.593 304.173 271.454 304.103C271.314 304.033 271.158 304.002 271.002 304.014H262.369C256.218 304.014 256.218 340.81 262.369 340.81H271.002C271.157 340.822 271.312 340.792 271.451 340.722C271.589 340.653 271.706 340.547 271.789 340.416C271.872 340.284 271.917 340.133 271.919 339.978C271.922 339.823 271.882 339.67 271.804 339.536C268.106 333.856 268.106 310.968 271.814 305.297Z" fill="white"/>
<path d="M380.851 253.341C380.684 250.72 380.068 248.148 379.03 245.736L379.879 245.321C380.958 247.835 381.596 250.516 381.766 253.246L380.851 253.341Z" fill="#407BFF"/>
<path d="M374.936 241.651H351.5V242.594H374.936V241.651Z" fill="#407BFF"/>
<path d="M222.197 270.342C221.715 271.625 222.895 272.918 224.489 272.918H374.935C380.02 272.918 380.02 244.953 374.935 244.953H224.489C222.895 244.953 221.715 246.255 222.197 247.538C224.178 252.85 224.178 265.011 222.197 270.342Z" fill="#407BFF"/>
<path opacity="0.2" d="M222.197 270.342C221.715 271.625 222.895 272.918 224.489 272.918H311.288C316.383 272.918 316.383 244.953 311.288 244.953H224.489C222.895 244.953 221.715 246.255 222.197 247.538C224.178 252.85 224.178 265.011 222.197 270.342Z" fill="black"/>
<path opacity="0.8" d="M222.423 248.227H308.769C312.675 248.227 312.675 269.653 308.769 269.653H222.423C224.093 264.275 224.093 253.605 222.423 248.227Z" fill="white"/>
<path opacity="0.2" d="M328.978 251.189C328.601 249.953 329.695 248.755 331.205 248.755H366.17C369.878 248.755 369.878 269.125 366.17 269.125H331.205C329.695 269.125 328.601 267.926 328.978 266.681C330.214 262.766 330.214 255.114 328.978 251.189Z" fill="white"/>
<path d="M208.13 40.5693C203.875 45.1262 193.487 40.5693 191.902 53.1174C190.185 66.6468 196.695 73.1473 188.289 76.7042C175.08 82.2235 165.645 104.282 183.987 112.556C202.328 120.83 241.387 112.16 236.991 95.3C232.594 78.4401 233.462 69.3923 238.651 61.4483C245.491 50.9474 244.029 37.4558 238.453 32.5686C229.773 24.9265 217.782 30.1911 208.13 40.5693Z" fill="#263238"/>
<path d="M230.83 94.847C230.758 94.8497 230.688 94.8249 230.633 94.7776C230.579 94.7303 230.545 94.664 230.538 94.5922C230.531 94.5543 230.532 94.5154 230.541 94.478C230.55 94.4405 230.566 94.4052 230.589 94.3743C230.612 94.3434 230.641 94.3175 230.674 94.2982C230.708 94.2789 230.745 94.2666 230.783 94.262C234.425 93.762 236.595 92.8657 237.614 91.4316C238.878 89.6485 238.331 86.9973 237.614 83.6386C236.5 78.1759 234.962 70.6942 239.868 61.2406C245.822 49.7774 243.642 37.2104 238.066 33.0969C238.004 33.0515 237.962 32.9835 237.95 32.9076C237.938 32.8317 237.956 32.7539 238 32.6912C238.047 32.6284 238.117 32.5864 238.195 32.5741C238.272 32.5617 238.351 32.5801 238.415 32.6252C244.227 36.8802 246.473 49.7869 240.387 61.5142C235.585 70.7791 237.095 78.1476 238.189 83.5254C238.906 87.0162 239.472 89.7806 238.057 91.7713C236.944 93.3469 234.651 94.3186 230.839 94.847H230.83Z" fill="#263238"/>
<path d="M183.259 78.5063C182.663 78.5038 182.068 78.466 181.476 78.3931C181.438 78.3885 181.4 78.3762 181.367 78.357C181.333 78.3378 181.303 78.3121 181.28 78.2814C181.256 78.2506 181.239 78.2155 181.229 78.178C181.219 78.1405 181.216 78.1013 181.221 78.0629C181.226 78.0244 181.238 77.9871 181.258 77.9534C181.277 77.9196 181.302 77.89 181.333 77.8663C181.364 77.8426 181.399 77.8253 181.437 77.8153C181.474 77.8053 181.513 77.8029 181.552 77.8082C184.231 78.1384 186.175 77.7421 187.486 76.5911C189.939 74.4305 189.977 69.9113 190.005 64.6751C190.005 58.7501 190.09 52.042 193.93 47.4662C193.955 47.4364 193.985 47.4119 194.019 47.3939C194.054 47.3759 194.091 47.3648 194.13 47.3613C194.168 47.3578 194.207 47.3619 194.244 47.3734C194.281 47.385 194.315 47.4036 194.345 47.4284C194.375 47.4532 194.399 47.4836 194.417 47.5179C194.435 47.5521 194.446 47.5896 194.45 47.6282C194.453 47.6667 194.449 47.7056 194.438 47.7425C194.426 47.7795 194.408 47.8138 194.383 47.8435C190.675 52.259 190.609 58.8538 190.609 64.6845C190.609 70.0528 190.543 74.6947 187.892 77.0345C186.585 78.0845 184.933 78.6093 183.259 78.5063V78.5063Z" fill="#263238"/>
<path d="M275.862 244.934C269.569 244.859 267.097 244.463 264.201 244.51C261.304 244.557 260.616 245.066 257.596 244.934C255.559 244.849 255.549 242.425 256.332 240.764C256.945 239.462 257.7 238.151 258.398 236.528L266.38 237.113C267.456 240.151 272.796 241.453 277.475 242.529C279.334 242.972 278.381 244.963 275.862 244.934Z" fill="#407BFF"/>
<path d="M234.244 129.029C234.244 129.029 255.359 147.191 276.7 166.456C285.72 174.617 266.803 236.839 266.803 236.839C266.407 238.17 259.368 236.273 258.312 235.226C258.312 235.226 257.236 186.93 261.812 177.203C214.488 165.239 207.091 142.002 207.091 142.002L210.487 127.585L234.244 129.029Z" fill="#263238"/>
<path opacity="0.2" d="M210.215 147.729C212.864 151.431 216.003 154.757 219.546 157.616C224.263 152.097 222.942 143.181 222.942 143.181L210.215 147.729Z" fill="black"/>
<path d="M268.445 234.15C268.313 235.094 268.087 236.764 267.964 238C267.945 238.2 267.851 238.385 267.7 238.519C267.549 238.652 267.354 238.723 267.153 238.717C263.995 238.469 260.868 237.926 257.812 237.094C257.665 237.053 257.535 236.966 257.442 236.845C257.348 236.725 257.296 236.577 257.294 236.424L257.228 232.981C257.227 232.869 257.25 232.758 257.295 232.655C257.34 232.553 257.406 232.461 257.488 232.385C257.571 232.31 257.669 232.252 257.775 232.217C257.881 232.181 257.993 232.168 258.105 232.179L267.842 233.358C267.934 233.368 268.024 233.397 268.105 233.443C268.186 233.489 268.257 233.551 268.313 233.625C268.369 233.699 268.41 233.784 268.433 233.874C268.456 233.965 268.46 234.058 268.445 234.15V234.15Z" fill="#263238"/>
<path opacity="0.3" d="M268.445 234.15C268.313 235.094 268.087 236.764 267.964 238C267.945 238.2 267.851 238.385 267.7 238.519C267.549 238.652 267.354 238.723 267.153 238.717C263.995 238.469 260.868 237.926 257.812 237.094C257.665 237.053 257.535 236.966 257.442 236.845C257.348 236.725 257.296 236.577 257.294 236.424L257.228 232.981C257.227 232.869 257.25 232.758 257.295 232.655C257.34 232.553 257.406 232.461 257.488 232.385C257.571 232.31 257.669 232.252 257.775 232.217C257.881 232.181 257.993 232.168 258.105 232.179L267.842 233.358C267.934 233.368 268.024 233.397 268.105 233.443C268.186 233.489 268.257 233.551 268.313 233.625C268.369 233.699 268.41 233.784 268.433 233.874C268.456 233.965 268.46 234.058 268.445 234.15V234.15Z" fill="white"/>
<path d="M183.477 290.06C177.08 290.06 174.986 287.655 171.41 286.994C168.391 286.428 167.589 286.692 165.155 286.268C163.117 285.909 162.956 284.513 164.211 282.447C165.03 281.018 165.724 279.522 166.287 277.975L175.986 278.616C176.995 281.211 179.325 286.485 182.882 287.107C186.232 287.758 186.024 290.06 183.477 290.06Z" fill="#407BFF"/>
<path d="M232.782 128.972C232.782 128.972 210.469 168.645 201.488 193.185C192.053 218.961 177.033 261.115 175.948 278.616C174.344 279.38 169.079 279.088 166.249 277.975C166.249 277.975 163.626 217.592 181.788 193.402C186.118 141.596 193.308 133.312 200.95 127L232.782 128.972Z" fill="#263238"/>
<path d="M177.118 275.04C177.002 276.235 176.971 277.436 177.024 278.635C177.037 278.844 176.967 279.049 176.829 279.206C176.691 279.364 176.496 279.46 176.288 279.475C172.674 279.805 167.636 278.644 166.042 278.248C165.894 278.211 165.762 278.126 165.666 278.007C165.571 277.888 165.517 277.74 165.513 277.588L165.391 274.21C165.389 274.099 165.411 273.989 165.454 273.887C165.497 273.784 165.561 273.692 165.642 273.616C165.722 273.54 165.818 273.481 165.923 273.444C166.027 273.406 166.138 273.391 166.249 273.399L176.476 274.276C176.569 274.283 176.659 274.309 176.742 274.351C176.825 274.394 176.898 274.452 176.958 274.523C177.018 274.595 177.063 274.677 177.09 274.766C177.118 274.855 177.127 274.948 177.118 275.04V275.04Z" fill="#263238"/>
<path opacity="0.3" d="M177.118 275.04C177.002 276.235 176.971 277.436 177.024 278.635C177.037 278.844 176.967 279.049 176.829 279.206C176.691 279.364 176.496 279.46 176.288 279.475C172.674 279.805 167.636 278.644 166.042 278.248C165.894 278.211 165.762 278.126 165.666 278.007C165.571 277.888 165.517 277.74 165.513 277.588L165.391 274.21C165.389 274.099 165.411 273.989 165.454 273.887C165.497 273.784 165.561 273.692 165.642 273.616C165.722 273.54 165.818 273.481 165.923 273.444C166.027 273.406 166.138 273.391 166.249 273.399L176.476 274.276C176.569 274.283 176.659 274.309 176.742 274.351C176.825 274.394 176.898 274.452 176.958 274.523C177.018 274.595 177.063 274.677 177.09 274.766C177.118 274.855 177.127 274.948 177.118 275.04V275.04Z" fill="white"/>
<path d="M238.698 90.0544C239.641 91.8375 240.66 93.8283 241.698 95.7152C242.736 97.6021 243.783 99.4891 244.84 101.329C246.972 105.037 249.199 108.669 251.586 112.094L250.302 110.952C251.249 111.618 252.293 112.133 253.397 112.481C254.733 112.929 256.102 113.269 257.492 113.5C258.945 113.764 260.454 113.943 261.992 114.085C263.53 114.226 265.143 114.311 266.615 114.405H266.813C267.426 114.441 268.007 114.688 268.458 115.105C268.908 115.523 269.198 116.084 269.28 116.692C269.361 117.3 269.229 117.918 268.904 118.439C268.58 118.96 268.084 119.352 267.502 119.547C265.816 120.108 264.091 120.543 262.341 120.849C260.583 121.162 258.805 121.354 257.02 121.425C255.126 121.497 253.23 121.384 251.359 121.085C249.247 120.767 247.205 120.09 245.321 119.085C244.929 118.871 244.58 118.586 244.292 118.245L244.038 117.943C242.538 116.151 241.075 114.32 239.736 112.443C238.396 110.565 237.084 108.669 235.867 106.782C234.65 104.895 233.471 102.886 232.358 100.895C231.244 98.9041 230.188 96.9323 229.178 94.7529C228.648 93.5144 228.611 92.1203 229.075 90.8555C229.538 89.5908 230.468 88.5508 231.673 87.9484C232.877 87.346 234.267 87.2265 235.557 87.6145C236.847 88.0024 237.94 88.8684 238.613 90.0355L238.698 90.0544Z" fill="#FFB573"/>
<path d="M233.49 82.4404C239.651 84.4689 240.651 87.2333 244.028 97.4416C241.783 103.565 232.707 106.669 232.707 106.669C232.707 106.669 221.989 89.2145 233.49 82.4404Z" fill="#407BFF"/>
<path d="M241.925 95.7245C241.576 99.1022 240.708 103.131 238.887 111.046C237.472 117.764 237.453 130.859 235.188 131.548C230.839 133.699 219.951 132.869 200.95 127.001C201.554 117.188 202.695 110.528 199.431 88.0164C199.225 86.8362 199.286 85.6251 199.607 84.4712C199.929 83.3173 200.504 82.2496 201.29 81.3459C202.076 80.4422 203.054 79.7251 204.152 79.2469C205.251 78.7688 206.442 78.5415 207.639 78.5817C209.017 78.5817 210.47 78.6949 211.951 78.827C217.176 79.1413 222.373 79.8318 227.499 80.8932C229.169 81.2706 230.896 81.714 232.537 82.1669C235.428 82.9926 237.944 84.7949 239.656 87.2669C241.367 89.7389 242.169 92.7278 241.925 95.7245V95.7245Z" fill="#407BFF"/>
<path d="M175.411 134.747L177.298 133.02C177.649 132.699 177.918 132.298 178.082 131.852C178.246 131.405 178.301 130.926 178.241 130.454L177.722 125.953C177.623 125.069 177.314 124.221 176.822 123.479C176.33 122.738 175.668 122.124 174.892 121.689L173.948 121.151C170.58 123.802 168.891 129.142 168.891 129.142L168.24 130.614C168.097 130.912 168.015 131.235 167.997 131.564C167.98 131.894 168.029 132.224 168.14 132.535C168.252 132.846 168.424 133.131 168.647 133.375C168.87 133.618 169.139 133.815 169.438 133.954L172.335 135.275C172.844 135.492 173.405 135.558 173.951 135.464C174.496 135.37 175.003 135.121 175.411 134.747Z" fill="#FFB573"/>
<path d="M274.446 112.084L272.03 111.141C271.583 110.972 271.102 110.913 270.628 110.969C270.153 111.024 269.699 111.194 269.304 111.462L265.53 113.99C264.789 114.488 264.179 115.157 263.75 115.94C263.322 116.723 263.088 117.598 263.067 118.49V119.613C266.964 121.387 272.502 120.425 272.502 120.425L274.106 120.33C274.436 120.319 274.761 120.243 275.061 120.106C275.361 119.969 275.632 119.774 275.856 119.532C276.081 119.289 276.255 119.005 276.369 118.695C276.484 118.386 276.535 118.056 276.521 117.726L276.37 114.547C276.327 113.993 276.121 113.464 275.779 113.026C275.436 112.588 274.973 112.26 274.446 112.084Z" fill="#FFB573"/>
<path d="M205.053 91.0544L203.846 91.611L202.525 92.2148C201.647 92.6394 200.779 93.0828 199.911 93.5357C198.166 94.4792 196.468 95.4226 194.798 96.4133C193.128 97.4039 191.515 98.5078 189.948 99.6305C188.382 100.753 186.929 101.98 185.514 103.235L186.137 102.442C185.677 103.119 185.273 103.832 184.929 104.574C184.514 105.433 184.127 106.367 183.75 107.32C182.995 109.207 182.259 111.226 181.58 113.254C180.901 115.283 180.212 117.339 179.542 119.396L177.504 125.595C177.307 126.204 176.895 126.72 176.345 127.048C175.795 127.376 175.145 127.493 174.515 127.378C173.886 127.263 173.319 126.923 172.922 126.421C172.524 125.92 172.322 125.291 172.353 124.651C172.457 122.378 172.664 120.17 172.919 117.943C173.174 115.717 173.494 113.5 173.862 111.273C174.23 109.046 174.711 106.81 175.325 104.546C175.627 103.414 175.957 102.282 176.372 101.093C176.81 99.7844 177.373 98.5207 178.051 97.319C178.17 97.1222 178.306 96.9359 178.457 96.7624L178.683 96.5265C180.238 94.813 181.902 93.2026 183.665 91.7054C185.403 90.2284 187.223 88.8518 189.118 87.5824C190.988 86.315 192.925 85.1497 194.921 84.0916C195.921 83.5632 196.93 83.0632 197.959 82.5726C198.477 82.3367 198.987 82.0914 199.525 81.865C200.062 81.6385 200.553 81.4404 201.223 81.1857C202.508 80.672 203.943 80.6839 205.219 81.2187C206.495 81.7535 207.51 82.7685 208.045 84.0447C208.58 85.3209 208.591 86.7561 208.078 88.0409C207.564 89.3257 206.566 90.3572 205.299 90.9129L205.053 91.0544Z" fill="#FFB573"/>
<path d="M214.168 81.0346C209.545 77.723 206.733 77.3645 195.544 82.2234C194.213 89.2617 198.572 99.5927 198.572 99.5927C198.572 99.5927 213.46 91.8373 214.168 81.0346Z" fill="#407BFF"/>
<path d="M215.376 61.4294C216.065 66.6091 216.508 75.9966 212.81 78.9025C212.81 78.9025 217.64 78.8176 226.877 86.3748C230.339 82.6009 228.358 80.9687 228.358 80.9687C222.858 78.8836 223.244 74.7229 224.443 70.9207L215.376 61.4294Z" fill="#FFB573"/>
<path d="M224.923 84.8463C221.555 84.8463 219.847 89.7429 219.847 89.7429C219.847 89.7429 211.752 83.2895 210.648 78.7514C211.723 78.3181 212.775 77.83 213.8 77.2891C213.8 77.2891 223.244 82.6763 224.923 84.8463Z" fill="white"/>
<path d="M228.15 84.7236C228.15 84.7236 230.698 85.6671 231.537 89.441C233.264 82.2517 229.896 81.1196 229.896 81.1196C229.052 80.4867 228.002 80.1908 226.952 80.2893C227.641 80.7701 228.138 81.4779 228.357 82.2886C228.577 83.0994 228.503 83.9615 228.15 84.7236V84.7236Z" fill="white"/>
<path opacity="0.2" d="M219.074 65.2976L224.433 70.9584C224.141 71.8433 223.93 72.7527 223.801 73.6756C221.688 73.0812 218.895 70.3357 218.801 68.0148C218.724 67.0999 218.816 66.1788 219.074 65.2976V65.2976Z" fill="black"/>
<path d="M209.564 53.891C211.451 61.9482 212.14 65.3919 216.98 69.0714C224.254 74.6002 233.698 71.015 234.208 62.6747C234.66 55.127 231.434 43.2392 222.886 40.9749C221.075 40.4304 219.151 40.3793 217.313 40.827C215.475 41.2747 213.791 42.2049 212.433 43.5215C211.075 44.838 210.093 46.4933 209.589 48.3162C209.084 50.1392 209.076 52.0637 209.564 53.891V53.891Z" fill="#FFB573"/>
<path d="M211.139 59.6839C214.102 58.2309 217.244 51.0889 213.026 47.7112C216.508 48.3622 220.498 47.4282 224.187 44.5789C228.999 40.805 236.085 50.1737 233.754 44.6733C230.395 36.7481 220.272 34.7668 211.111 41.3522C201.95 47.9377 202.601 55.9477 211.139 59.6839Z" fill="#263238"/>
<path d="M208.629 58.0707C208.597 58.0675 208.567 58.054 208.543 58.0323C208.519 58.0106 208.502 57.9818 208.496 57.9501C208.49 57.9184 208.494 57.8855 208.507 57.8563C208.521 57.8271 208.544 57.803 208.572 57.7876C210.931 56.7687 220.941 54.6365 221.366 54.5515C221.385 54.5459 221.405 54.5445 221.425 54.5473C221.445 54.5501 221.464 54.5571 221.481 54.5678C221.498 54.5785 221.512 54.5927 221.523 54.6094C221.535 54.6261 221.542 54.645 221.545 54.6648C221.551 54.7021 221.543 54.7403 221.522 54.7717C221.501 54.8031 221.469 54.8256 221.432 54.8346C221.328 54.8346 211.054 57.0517 208.686 58.0613L208.629 58.0707Z" fill="white"/>
<path opacity="0.2" d="M220.772 54.7213C219.761 54.2765 218.614 54.2494 217.583 54.6458C218.631 54.8778 219.714 54.9034 220.772 54.7213V54.7213Z" fill="black"/>
<path opacity="0.2" d="M220.687 55.4384C220.196 55.3349 219.689 55.3395 219.2 55.4519C218.711 55.5643 218.253 55.7819 217.856 56.0894C218.835 56.0738 219.8 55.852 220.687 55.4384V55.4384Z" fill="black"/>
<path d="M222.526 54.6082C222.658 55.2969 223.121 55.8064 223.564 55.7498C224.007 55.6932 224.253 55.0988 224.121 54.4101C223.989 53.7213 223.517 53.2213 223.083 53.2685C222.649 53.3156 222.394 53.9289 222.526 54.6082Z" fill="#263238"/>
<path d="M230.81 53.7119C230.942 54.3912 231.414 54.9006 231.848 54.8535C232.282 54.8063 232.537 54.193 232.405 53.5137C232.272 52.8344 231.81 52.3155 231.367 52.3721C230.923 52.4288 230.678 53.0231 230.81 53.7119Z" fill="#263238"/>
<path d="M231.149 52.4381L232.678 51.7588C232.678 51.7588 232.093 53.1457 231.149 52.4381Z" fill="#263238"/>
<path d="M229.264 55.0232C230.08 56.5624 231.088 57.9921 232.264 59.2782C231.942 59.5483 231.565 59.7435 231.158 59.8496C230.752 59.9556 230.327 59.97 229.915 59.8915L229.264 55.0232Z" fill="#ED893E"/>
<path d="M226.291 62.9389C226.671 62.9713 227.053 62.9713 227.432 62.9389C227.458 62.9356 227.483 62.9269 227.505 62.9135C227.528 62.9001 227.547 62.8822 227.562 62.8609C227.577 62.8396 227.588 62.8154 227.593 62.7899C227.598 62.7644 227.598 62.738 227.593 62.7125C227.583 62.6583 227.554 62.6097 227.51 62.5764C227.466 62.5431 227.412 62.5277 227.357 62.5333C226.503 62.6367 225.637 62.549 224.821 62.2765C224.005 62.004 223.26 61.5535 222.64 60.9577C222.621 60.9388 222.599 60.9239 222.575 60.9137C222.55 60.9035 222.524 60.8982 222.498 60.8982C222.472 60.8982 222.446 60.9035 222.421 60.9137C222.397 60.9239 222.375 60.9388 222.356 60.9577C222.321 60.9961 222.301 61.0467 222.301 61.0992C222.301 61.1517 222.321 61.2023 222.356 61.2407C223.418 62.2665 224.816 62.8703 226.291 62.9389V62.9389Z" fill="#263238"/>
<path d="M207.649 61.1086C208.103 61.7573 208.688 62.3045 209.365 62.7154C210.042 63.1263 210.797 63.3919 211.583 63.4956C213.545 63.6559 213.97 61.3727 212.97 59.3443C212.073 57.5234 209.969 55.2308 208.252 56.0233C206.535 56.8158 206.375 59.4386 207.649 61.1086Z" fill="#FFB573"/>
<path d="M219.875 49.4097C219.928 49.4097 219.98 49.3979 220.027 49.375C220.074 49.3521 220.116 49.3188 220.149 49.2776C220.452 48.889 220.847 48.5814 221.298 48.3822C221.749 48.1831 222.242 48.0985 222.734 48.136C222.785 48.144 222.837 48.1414 222.887 48.1283C222.937 48.1153 222.984 48.0922 223.025 48.0603C223.065 48.0285 223.099 47.9886 223.124 47.9432C223.148 47.8978 223.163 47.8478 223.168 47.7964C223.172 47.688 223.137 47.5818 223.07 47.4969C223.002 47.4121 222.906 47.3543 222.8 47.3341C222.179 47.2791 221.554 47.3787 220.981 47.624C220.409 47.8693 219.905 48.2526 219.517 48.7398C219.471 48.8042 219.444 48.88 219.439 48.9588C219.434 49.0375 219.451 49.1161 219.489 49.1857C219.526 49.2552 219.582 49.313 219.65 49.3526C219.718 49.3922 219.796 49.412 219.875 49.4097V49.4097Z" fill="#263238"/>
<path d="M232.339 49.0605C232.389 49.0661 232.44 49.0614 232.489 49.0469C232.538 49.0323 232.583 49.008 232.622 48.9755C232.659 48.9387 232.689 48.8946 232.71 48.846C232.73 48.7974 232.741 48.7452 232.741 48.6925C232.741 48.6398 232.73 48.5876 232.71 48.539C232.689 48.4904 232.659 48.4464 232.622 48.4095C232.214 47.8975 231.694 47.4864 231.102 47.2082C230.509 46.9301 229.861 46.7923 229.206 46.8056C229.154 46.8098 229.104 46.8251 229.058 46.8504C229.012 46.8758 228.972 46.9106 228.941 46.9526C228.91 46.9945 228.888 47.0427 228.877 47.0938C228.865 47.1449 228.865 47.1978 228.876 47.249C228.892 47.3556 228.948 47.4524 229.032 47.5204C229.115 47.5885 229.221 47.6229 229.329 47.617C229.848 47.6114 230.361 47.725 230.829 47.9491C231.297 48.1732 231.707 48.5018 232.027 48.9095C232.065 48.9561 232.112 48.9937 232.166 49.0198C232.22 49.0459 232.279 49.0598 232.339 49.0605V49.0605Z" fill="#263238"/>
<path d="M225.083 58.8821C223.093 58.8821 221.366 56.7687 221.177 54.061C221.063 52.7857 221.357 51.507 222.017 50.4097C222.278 49.9446 222.646 49.5486 223.09 49.2548C223.535 48.961 224.044 48.7779 224.574 48.7209C226.659 48.5794 228.489 50.74 228.687 53.5421C228.886 56.3442 227.348 58.7311 225.282 58.8727L225.083 58.8821ZM224.772 49.0606H224.602C224.117 49.1162 223.652 49.2864 223.245 49.557C222.838 49.8277 222.501 50.1911 222.262 50.6173C221.636 51.661 221.358 52.8771 221.47 54.0893C221.649 56.7216 223.357 58.75 225.244 58.6274C227.131 58.5047 228.555 56.2404 228.376 53.6081C228.197 50.9758 226.612 49.0606 224.772 49.0606Z" fill="white"/>
<path d="M233.906 58.3727C231.915 58.3727 230.179 56.2687 229.99 53.561C229.881 52.286 230.174 51.0087 230.83 49.9097C231.093 49.4444 231.462 49.0485 231.909 48.7547C232.355 48.461 232.865 48.278 233.396 48.2209C235.462 48.0794 237.312 50.24 237.5 53.0326C237.61 54.3076 237.316 55.5849 236.661 56.6839C236.399 57.1502 236.03 57.547 235.583 57.8408C235.137 58.1347 234.626 58.3171 234.094 58.3727H233.906ZM233.594 48.5134H233.415C232.93 48.5691 232.464 48.7392 232.058 49.0099C231.651 49.2805 231.314 49.6439 231.075 50.0701C230.457 51.1172 230.18 52.3306 230.283 53.5421C230.462 56.0895 232.066 58.0802 233.906 58.0802H234.075C234.562 58.0268 235.028 57.8575 235.435 57.5867C235.842 57.3158 236.178 56.9512 236.415 56.5235C237.037 55.4812 237.314 54.2697 237.208 53.0609C237.029 50.5041 235.425 48.5134 233.594 48.5134V48.5134Z" fill="white"/>
<path d="M230.207 53.9478C230.182 53.9464 230.157 53.9388 230.136 53.9256C230.114 53.9124 230.097 53.8941 230.084 53.8723C229.725 53.3062 228.678 53.9195 228.669 53.9195C228.653 53.9297 228.635 53.9366 228.616 53.9398C228.597 53.943 228.578 53.9424 228.56 53.938C228.541 53.9336 228.524 53.9255 228.508 53.9142C228.493 53.9029 228.48 53.8887 228.471 53.8723C228.447 53.8448 228.434 53.8096 228.434 53.7732C228.434 53.7368 228.447 53.7016 228.471 53.6742C228.527 53.6742 229.773 52.9005 230.282 53.6742C230.294 53.6897 230.302 53.7076 230.306 53.7267C230.31 53.7457 230.31 53.7654 230.305 53.7843C230.301 53.8033 230.292 53.821 230.28 53.8362C230.268 53.8514 230.252 53.8637 230.235 53.8723C230.235 53.8861 230.233 53.8999 230.228 53.9129C230.224 53.9259 230.216 53.9377 230.207 53.9478V53.9478Z" fill="white"/>
<path d="M222.895 53.3344L224.414 52.6646C224.414 52.6646 223.838 54.0515 222.895 53.3344Z" fill="#263238"/>
</svg>
